<svg xmlns="http://www.w3.org/2000/svg" viewBox="0 0 96 96" role="img" aria-labelledby="logo-title logo-desc">
  <title id="logo-title">Myanmar Nameology logo</title>
  <desc id="logo-desc">A compact numerology mark with orbiting points around a central nameology seal.</desc>
  <defs>
    <linearGradient id="seal" x1="18" y1="12" x2="78" y2="84" gradientUnits="userSpaceOnUse">
      <stop offset="0" stop-color="#0f766e"/>
      <stop offset="0.58" stop-color="#17211d"/>
      <stop offset="1" stop-color="#0b4f4a"/>
    </linearGradient>
    <linearGradient id="stroke" x1="22" y1="22" x2="72" y2="74" gradientUnits="userSpaceOnUse">
      <stop offset="0" stop-color="#fff7df"/>
      <stop offset="1" stop-color="#b7791f"/>
    </linearGradient>
  </defs>
  <rect x="4" y="4" width="88" height="88" rx="20" fill="#fbfaf6"/>
  <rect x="9" y="9" width="78" height="78" rx="17" fill="url(#seal)"/>
  <path d="M21 66c8.8-20.8 18.3-31.2 28.4-31.2 9.8 0 18.4 10.4 25.7 31.2" fill="none" stroke="url(#stroke)" stroke-width="5.4" stroke-linecap="round"/>
  <path d="M28 60c5.5 5.7 12.1 8.6 19.8 8.6 8.1 0 14.8-2.9 20.2-8.6" fill="none" stroke="#fbfaf6" stroke-width="4.3" stroke-linecap="round" opacity="0.92"/>
  <circle cx="48" cy="48" r="25.5" fill="none" stroke="#fbfaf6" stroke-width="2.2" opacity="0.38"/>
  <circle cx="48" cy="48" r="8.5" fill="#fbfaf6"/>
  <circle cx="48" cy="48" r="3.5" fill="#0f766e"/>
  <circle cx="48" cy="22" r="4" fill="#f6d58a"/>
  <circle cx="72" cy="48" r="4" fill="#f6d58a"/>
  <circle cx="48" cy="74" r="4" fill="#f6d58a"/>
  <circle cx="24" cy="48" r="4" fill="#f6d58a"/>
  <path d="M32 30 64 66M64 30 32 66" stroke="#fbfaf6" stroke-width="2.2" stroke-linecap="round" opacity="0.34"/>
</svg>
